<svg width="14" height="16" viewBox="0 0 14 16" fill="none" xmlns="http://www.w3.org/2000/svg">
<path d="M5.53417 12.0063C5.53417 12.2649 5.32252 12.4766 5.06384 12.4766C4.80517 12.4766 4.59352 12.2649 4.59352 12.0063V5.89205C4.59352 5.63337 4.80517 5.42173 5.06384 5.42173C5.32252 5.42173 5.53417 5.63337 5.53417 5.89205V12.0063ZM7.88579 12.0063C7.88579 12.2649 7.67414 12.4766 7.41546 12.4766C7.15678 12.4766 6.94514 12.2649 6.94514 12.0063V5.89205C6.94514 5.63337 7.15678 5.42173 7.41546 5.42173C7.67414 5.42173 7.88579 5.63337 7.88579 5.89205V12.0063ZM10.2374 12.0063C10.2374 12.2649 10.0258 12.4766 9.76708 12.4766C9.5084 12.4766 9.29676 12.2649 9.29676 12.0063V5.89205C9.29676 5.63337 9.5084 5.42173 9.76708 5.42173C10.0258 5.42173 10.2374 5.63337 10.2374 5.89205V12.0063ZM10.1639 0.981286L11.2427 2.59979H13.2945C13.6855 2.59979 14 2.91579 14 3.30527C14 3.69623 13.6855 4.01076 13.2945 4.01076H13.0593V12.9469C13.0593 14.2462 12.007 15.2985 10.7077 15.2985H4.1232C2.82452 15.2985 1.77158 14.2462 1.77158 12.9469V4.01076H1.53642C1.14693 4.01076 0.830933 3.69623 0.830933 3.30527C0.830933 2.91579 1.14693 2.59979 1.53642 2.59979H3.58879L4.66701 0.981286C4.97272 0.52322 5.48714 0.248169 6.03683 0.248169H8.7941C9.34379 0.248169 9.85821 0.523249 10.1639 0.981286ZM5.28431 2.59979H9.54662L8.98811 1.76379C8.94401 1.69853 8.87053 1.65914 8.7941 1.65914H6.03683C5.9604 1.65914 5.86046 1.69853 5.84282 1.76379L5.28431 2.59979ZM3.18255 12.9469C3.18255 13.4672 3.60378 13.8876 4.1232 13.8876H10.7077C11.228 13.8876 11.6484 13.4672 11.6484 12.9469V4.01076H3.18255V12.9469Z" fill="#A6A2A2"/>
</svg>
