<svg width="15" height="13" viewBox="0 0 15 13" fill="none" xmlns="http://www.w3.org/2000/svg">
<path d="M4.36816 0.951786L4.06348 1.85714H1.875C0.84082 1.85714 0 2.68996 0 3.71429V11.1429C0 12.1672 0.84082 13 1.875 13H13.125C14.1592 13 15 12.1672 15 11.1429V3.71429C15 2.68996 14.1592 1.85714 13.125 1.85714H10.9365L10.6318 0.951786C10.4414 0.383036 9.90527 0 9.29883 0H5.70117C5.09473 0 4.55859 0.383036 4.36816 0.951786ZM7.5 10.2143C5.94727 10.2143 4.6875 8.96652 4.6875 7.42857C4.6875 5.89062 5.94727 4.64286 7.5 4.64286C9.05273 4.64286 10.3125 5.89062 10.3125 7.42857C10.3125 8.96652 9.05273 10.2143 7.5 10.2143Z" fill="#A6A2A2"/>
</svg>
