<svg width="19" height="19" viewBox="0 0 19 19" fill="none" xmlns="http://www.w3.org/2000/svg">
<path d="M17.4865 1.01668C16.72 0.250219 15.4811 0.250219 14.7146 1.01668L13.6612 2.06662L17.0875 5.49292L18.1409 4.43948C18.9074 3.67303 18.9074 2.4341 18.1409 1.66764L17.4865 1.01668ZM7.01504 8.71624C6.80156 8.92973 6.63707 9.19222 6.54257 9.4827L5.50663 12.5905C5.40514 12.8915 5.48563 13.224 5.70962 13.4515C5.93361 13.679 6.26609 13.756 6.57057 13.6545L9.67839 12.6185C9.96538 12.5205 10.2279 12.3595 10.4449 12.1461L16.3 6.28738L12.8702 2.85757L7.01504 8.71624ZM4.3412 2.49709C2.4863 2.49709 0.981384 4.00201 0.981384 5.8569V14.8164C0.981384 16.6713 2.4863 18.1762 4.3412 18.1762H13.3007C15.1556 18.1762 16.6605 16.6713 16.6605 14.8164V11.4566C16.6605 10.8371 16.16 10.3367 15.5406 10.3367C14.9211 10.3367 14.4206 10.8371 14.4206 11.4566V14.8164C14.4206 15.4359 13.9202 15.9363 13.3007 15.9363H4.3412C3.72173 15.9363 3.22126 15.4359 3.22126 14.8164V5.8569C3.22126 5.23744 3.72173 4.73697 4.3412 4.73697H7.70101C8.32047 4.73697 8.82094 4.23649 8.82094 3.61703C8.82094 2.99756 8.32047 2.49709 7.70101 2.49709H4.3412Z" fill="#A6A2A2"/>
</svg>
