<svg width="16" height="13" viewBox="0 0 16 13" fill="none" xmlns="http://www.w3.org/2000/svg">
<path d="M6.4 0H14.4C15.2825 0 16 0.728711 16 1.625V7.3125C16 8.20879 15.2825 8.9375 14.4 8.9375H6.4C5.5175 8.9375 4.8 8.20879 4.8 7.3125V1.625C4.8 0.728711 5.5175 0 6.4 0ZM11.9 2.70918C11.7875 2.53906 11.6 2.4375 11.4 2.4375C11.2 2.4375 11.0125 2.53906 10.9 2.70918L9.5 4.84199L9.0675 4.29102C8.9525 4.14629 8.78 4.0625 8.6 4.0625C8.42 4.0625 8.245 4.14629 8.1325 4.29102L6.5325 6.32227C6.3875 6.50508 6.36 6.75644 6.46 6.96719C6.56 7.17793 6.77 7.3125 7 7.3125H9H10.2H13.8C14.0225 7.3125 14.225 7.18809 14.33 6.99004C14.435 6.79199 14.4225 6.55078 14.3 6.36543L11.9 2.70918ZM8.4 2.4375C8.4 1.98809 8.0425 1.625 7.6 1.625C7.1575 1.625 6.8 1.98809 6.8 2.4375C6.8 2.88691 7.1575 3.25 7.6 3.25C8.0425 3.25 8.4 2.88691 8.4 2.4375ZM1.6 3.25H4V9.75V10.5625C4 11.0119 4.3575 11.375 4.8 11.375H8C8.4425 11.375 8.8 11.0119 8.8 10.5625V9.75H12.8V11.375C12.8 12.2713 12.0825 13 11.2 13H1.6C0.7175 13 0 12.2713 0 11.375V4.875C0 3.97871 0.7175 3.25 1.6 3.25ZM1.8 4.875C1.58 4.875 1.4 5.05781 1.4 5.28125V5.6875C1.4 5.91094 1.58 6.09375 1.8 6.09375H2.2C2.42 6.09375 2.6 5.91094 2.6 5.6875V5.28125C2.6 5.05781 2.42 4.875 2.2 4.875H1.8ZM1.8 7.51562C1.58 7.51562 1.4 7.69844 1.4 7.92188V8.32812C1.4 8.55156 1.58 8.73438 1.8 8.73438H2.2C2.42 8.73438 2.6 8.55156 2.6 8.32812V7.92188C2.6 7.69844 2.42 7.51562 2.2 7.51562H1.8ZM1.8 10.1562C1.58 10.1562 1.4 10.3391 1.4 10.5625V10.9688C1.4 11.1922 1.58 11.375 1.8 11.375H2.2C2.42 11.375 2.6 11.1922 2.6 10.9688V10.5625C2.6 10.3391 2.42 10.1562 2.2 10.1562H1.8ZM10.2 10.5625V10.9688C10.2 11.1922 10.38 11.375 10.6 11.375H11C11.22 11.375 11.4 11.1922 11.4 10.9688V10.5625C11.4 10.3391 11.22 10.1562 11 10.1562H10.6C10.38 10.1562 10.2 10.3391 10.2 10.5625Z" fill="#A6A2A2"/>
</svg>
