<svg width="29" height="28" viewBox="0 0 29 28" fill="none" xmlns="http://www.w3.org/2000/svg">
<path d="M10.1027 22.0464C10.1027 22.159 9.97316 22.2492 9.80983 22.2492C9.62399 22.266 9.49445 22.1759 9.49445 22.0464C9.49445 21.9338 9.62399 21.8437 9.78731 21.8437C9.95626 21.8268 10.1027 21.9169 10.1027 22.0464ZM8.3512 21.793C8.31177 21.9056 8.42441 22.0351 8.59336 22.0689C8.73979 22.1252 8.90875 22.0689 8.94254 21.9563C8.97633 21.8437 8.86932 21.7141 8.70037 21.6634C8.55394 21.624 8.39062 21.6803 8.3512 21.793ZM10.8405 21.6972C10.6771 21.7367 10.5645 21.8437 10.5814 21.9732C10.5983 22.0858 10.7447 22.159 10.9137 22.1196C11.077 22.0802 11.1896 21.9732 11.1727 21.8606C11.1558 21.7536 11.0038 21.6803 10.8405 21.6972ZM14.5462 0.11615C6.73487 0.11615 0.759521 6.04644 0.759521 13.8578C0.759521 20.1034 4.69052 25.448 10.3054 27.329C11.0263 27.4586 11.2797 27.0137 11.2797 26.6476C11.2797 26.2984 11.2628 24.3723 11.2628 23.1897C11.2628 23.1897 7.32058 24.0344 6.4927 21.5114C6.4927 21.5114 5.85067 19.8725 4.92706 19.4501C4.92706 19.4501 3.63737 18.5659 5.01717 18.5828C5.01717 18.5828 6.41949 18.6955 7.19104 20.0359C8.42441 22.2097 10.4913 21.5846 11.2966 21.2129C11.4262 20.3118 11.7922 19.6867 12.1977 19.315C9.04954 18.9658 5.8732 18.5096 5.8732 13.0918C5.8732 11.5431 6.30122 10.7659 7.20231 9.7747C7.05588 9.40863 6.57718 7.89931 7.34874 5.9507C8.52578 5.58463 11.2347 7.47129 11.2347 7.47129C12.361 7.15591 13.5719 6.99259 14.7715 6.99259C15.971 6.99259 17.1819 7.15591 18.3082 7.47129C18.3082 7.47129 21.0171 5.579 22.1942 5.9507C22.9657 7.90494 22.487 9.40863 22.3406 9.7747C23.2417 10.7715 23.7936 11.5487 23.7936 13.0918C23.7936 18.5265 20.4765 18.9602 17.3283 19.315C17.8464 19.7599 18.2857 20.6047 18.2857 21.9281C18.2857 23.8261 18.2688 26.1745 18.2688 26.6363C18.2688 27.0024 18.5279 27.4473 19.2431 27.3178C24.8749 25.448 28.6933 20.1034 28.6933 13.8578C28.6933 6.04644 22.3575 0.11615 14.5462 0.11615ZM6.23364 19.5403C6.16042 19.5966 6.17732 19.7261 6.27306 19.8331C6.36317 19.9232 6.4927 19.9626 6.56591 19.8894C6.63913 19.8331 6.62223 19.7036 6.52649 19.5966C6.43638 19.5065 6.30685 19.467 6.23364 19.5403ZM5.6254 19.0841C5.58598 19.1573 5.6423 19.2474 5.75493 19.3037C5.84504 19.36 5.95768 19.3431 5.9971 19.2643C6.03652 19.1911 5.98021 19.101 5.86757 19.0447C5.75493 19.0109 5.66483 19.0278 5.6254 19.0841ZM7.45011 21.089C7.36 21.1622 7.39379 21.3312 7.52332 21.4382C7.65285 21.5677 7.81618 21.5846 7.88939 21.4945C7.9626 21.4213 7.92881 21.2523 7.81618 21.1453C7.69228 21.0158 7.52332 20.9989 7.45011 21.089ZM6.80808 20.2611C6.71797 20.3174 6.71797 20.4639 6.80808 20.5934C6.89819 20.7229 7.05025 20.7792 7.12346 20.7229C7.21357 20.6497 7.21357 20.5033 7.12346 20.3738C7.04462 20.2442 6.89819 20.1879 6.80808 20.2611Z" fill="white"/>
</svg>
