<svg width="25" height="22" viewBox="0 0 25 22" fill="none" xmlns="http://www.w3.org/2000/svg">
<path d="M1.7113 12.3578C1.00296 12.3578 0.377964 11.752 0.377964 10.9785C0.336298 10.5918 0.502964 10.248 0.836298 9.94727L11.478 0.300781C11.728 0.0859375 12.0613 0 12.353 0C12.6446 0 12.978 0.0429688 13.2696 0.34375L23.953 9.94727C24.2446 10.248 24.3696 10.5918 24.3696 10.9785C24.3696 11.7563 23.7863 12.3578 23.0363 12.3578H21.6988V15.3484C21.703 15.3871 21.703 15.4301 21.703 15.4688V20.2812C21.703 21.2309 20.9571 22 20.0363 22H19.3696C19.3196 22 19.2696 21.9957 19.2196 21.9914C19.1571 21.9957 19.0946 22 19.0321 22H17.703H16.703H8.0363H7.0363H5.68213C5.6238 22 5.56546 22 5.50713 21.9957C5.4613 22 5.41546 22 5.36963 22H4.70296C3.78213 22 3.0363 21.2309 3.0363 20.2812V19.5895C3.0238 19.4734 3.01546 19.3574 3.01546 19.2414L3.04463 12.3578H1.7113Z" fill="#232222"/>
</svg>
