<svg width="25" height="22" viewBox="0 0 25 22" fill="none" xmlns="http://www.w3.org/2000/svg">
<path fill-rule="evenodd" clip-rule="evenodd" d="M4.27905 9.46237C4.71457 9.83722 4.97665 10.3901 4.97455 10.9856L4.94539 19.2414C4.94539 19.2421 4.94539 19.2427 4.9454 19.2434C4.9455 19.266 4.94729 19.3062 4.95472 19.3752C4.96239 19.4464 4.96623 19.5179 4.96623 19.5895V20H5.29956L5.30618 20C5.39256 19.9943 5.47924 19.9943 5.56567 19.9998L5.57752 20L5.61206 20H18.9522C18.952 20 18.9524 20 18.9522 20L18.974 19.9987L19.0124 19.9961C19.1151 19.9891 19.2182 19.9899 19.3208 19.9988L19.3354 20H19.6329V15.4775C19.6301 15.4345 19.6287 15.3915 19.6287 15.3484V10.9785C19.6287 10.3791 19.8962 9.82375 20.3384 9.45031L12.2818 2.20803L4.27905 9.46237ZM0.301609 10.866C0.301729 10.9031 0.30381 10.9406 0.307896 10.9785C0.307896 11.0099 0.308928 11.041 0.310951 11.0719C0.341875 11.5427 0.604753 11.9422 0.97036 12.1658C1.17031 12.2881 1.40097 12.3578 1.64123 12.3578L2.97456 10.9785L2.94539 19.2414C2.94539 19.3574 2.95373 19.4734 2.96623 19.5895V20.2812C2.96623 21.2309 3.71206 22 4.63289 22H5.29956C5.3454 22 5.39123 22 5.43706 21.9957C5.49539 22 5.55373 22 5.61206 22H18.9621C19.0246 22 19.0871 21.9957 19.1496 21.9914C19.1996 21.9957 19.2496 22 19.2996 22H19.9662C20.8871 22 21.6329 21.2309 21.6329 20.2812V15.4688C21.6329 15.4301 21.6329 15.3871 21.6287 15.3484V10.9785L22.9662 12.3578C23.2093 12.3578 23.4349 12.2946 23.6287 12.1827C24.0101 11.9627 24.2688 11.5541 24.297 11.0674C24.2987 11.038 24.2996 11.0084 24.2996 10.9785C24.2996 10.937 24.2981 10.8959 24.2952 10.8553C24.2708 10.5184 24.1432 10.2157 23.8829 9.94727L13.1996 0.34375C12.9079 0.0429688 12.5746 0 12.2829 0C11.9912 0 11.6579 0.0859375 11.4079 0.300781L0.76623 9.94727C0.465572 10.2186 0.300508 10.5248 0.301609 10.866Z" fill="#232222"/>
</svg>
