<svg width="24" height="22" viewBox="0 0 24 22" fill="none" xmlns="http://www.w3.org/2000/svg">
<path d="M12.5625 2.10267L12.0422 2.70562L11.4797 2.10368C9.90937 0.463154 7.73438 -0.283498 5.59687 0.0978673C2.36719 0.674689 0 3.67034 0 7.18252V7.47395C0 9.55915 0.80625 11.5539 2.23125 12.9759L10.7016 21.4523C11.0531 21.804 11.5172 22 12 22C12.4828 22 12.9469 21.804 13.2984 21.4523L21.7692 12.9759C23.1923 11.5539 24 9.55915 24 7.47395V7.18252C24 3.67034 21.6319 0.674689 18.4031 0.0978673C16.3078 -0.283498 14.0906 0.463154 12.5625 2.10267C12.5625 2.10318 12.6047 2.10267 12.5625 2.10267ZM12.0422 6.11731L14.1516 3.76581C15.1687 2.71969 16.6125 2.22326 18.0328 2.4765C20.1773 2.85988 21.75 4.85112 21.75 7.18252V7.47395C21.75 8.89088 21.2011 10.2475 20.2341 11.2122L12 19.4525L3.76406 11.2122C2.79844 10.2475 2.25 8.89088 2.25 7.47395V7.18252C2.25 4.85112 3.825 2.85988 5.96719 2.4765C7.3875 2.22326 8.83125 2.71969 9.84844 3.76581L12.0422 6.11731Z" fill="white"/>
</svg>
