<svg width="21" height="19" viewBox="0 0 21 19" fill="none" xmlns="http://www.w3.org/2000/svg">
<path d="M10.9922 1.81595L10.5369 2.33667L10.0447 1.81681C8.6707 0.399997 6.76758 -0.244839 4.89726 0.0845218C2.07129 0.582686 0 3.16984 0 6.20309V6.45477C0 8.25563 0.705469 9.97837 1.95234 11.2064L9.36387 18.527C9.67148 18.8308 10.0775 19 10.5 19C10.9225 19 11.3285 18.8308 11.6361 18.527L19.0481 11.2064C20.2933 9.97837 21 8.25563 21 6.45477V6.20309C21 3.16984 18.9279 0.582686 16.1027 0.0845218C14.2693 -0.244839 12.3293 0.399997 10.9922 1.81595Z" fill="white" style="mix-blend-mode:luminosity"/>
</svg>
