<svg width="18" height="14" viewBox="0 0 18 14" fill="none" xmlns="http://www.w3.org/2000/svg">
<path d="M15.6111 0.381744H5.22222C4.17891 0.381744 3.33333 1.21311 3.33333 2.23889V8.73889C3.33333 9.76467 4.17891 10.596 5.22222 10.596H15.6111C16.6544 10.596 17.5 9.76467 17.5 8.73889V2.23889C17.5 1.21311 16.653 0.381744 15.6111 0.381744ZM16.0833 8.73889C16.0833 8.99488 15.8715 9.20317 15.6111 9.20317H15.1389L11.913 4.5342C11.8245 4.40652 11.6769 4.32817 11.5175 4.32817C11.3596 4.32817 11.2121 4.40571 11.1247 4.53492L9.273 7.2658L8.61337 6.37683C8.52483 6.25496 8.38316 6.18532 8.23264 6.18532C8.08185 6.18532 7.94004 6.25615 7.85102 6.37608L5.69444 9.20317H5.22222C4.96185 9.20317 4.75 8.99488 4.75 8.73889V2.23889C4.75 1.98289 4.96185 1.7746 5.22222 1.7746H15.6111C15.8715 1.7746 16.0833 1.98289 16.0833 2.23889V8.73889ZM7.11111 2.70317C6.5896 2.70317 6.16667 3.119 6.16667 3.63174C6.16667 4.14449 6.5896 4.56032 7.11111 4.56032C7.63292 4.56032 8.05556 4.14449 8.05556 3.63174C8.05556 3.119 7.63351 2.70317 7.11111 2.70317ZM13.9583 13.3817H4.04167C2.08873 13.3817 0.5 11.8206 0.5 9.8996V2.93532C0.5 2.55228 0.817274 2.23889 1.20833 2.23889C1.59939 2.23889 1.91667 2.55228 1.91667 2.93532V9.8996C1.91667 11.0516 2.86997 11.9889 4.04167 11.9889H13.9583C14.3494 11.9889 14.6667 12.3008 14.6667 12.6853C14.6667 13.0698 14.3509 13.3817 13.9583 13.3817Z" fill="#A6A2A2"/>
</svg>
