<svg width="20" height="21" viewBox="0 0 20 21" fill="none" xmlns="http://www.w3.org/2000/svg">
<path d="M11.5328 2.17659C11.5328 1.32563 10.8478 0.638123 9.99999 0.638123C9.15214 0.638123 8.46716 1.32563 8.46716 2.17659V9.09971H1.5694C0.721546 9.09971 0.0365601 9.78722 0.0365601 10.6382C0.0365601 11.4892 0.721546 12.1767 1.5694 12.1767H8.46716V19.0998C8.46716 19.9507 9.15214 20.6382 9.99999 20.6382C10.8478 20.6382 11.5328 19.9507 11.5328 19.0998V12.1767H18.4306C19.2784 12.1767 19.9634 11.4892 19.9634 10.6382C19.9634 9.78722 19.2784 9.09971 18.4306 9.09971H11.5328V2.17659Z" fill="white"/>
</svg>
