<svg width="21" height="22" viewBox="0 0 21 22" fill="none" xmlns="http://www.w3.org/2000/svg">
<path fill-rule="evenodd" clip-rule="evenodd" d="M10.9601 9C13.0845 9 14.6744 7.36196 14.6744 5.5C14.6744 3.63804 13.0845 2 10.9601 2C8.83567 2 7.2458 3.63804 7.2458 5.5C7.2458 7.36196 8.83567 9 10.9601 9ZM3.00897 20H18.9112C18.54 17.2672 16.0965 15.0625 13.0003 15.0625H8.9199C5.82367 15.0625 3.38014 17.2672 3.00897 20ZM16.6744 5.5C16.6744 8.53789 14.1163 11 10.9601 11C7.80383 11 5.2458 8.53789 5.2458 5.5C5.2458 2.46211 7.80383 0 10.9601 0C14.1163 0 16.6744 2.46211 16.6744 5.5ZM0.960083 20.7238C0.960083 16.4914 4.52258 13.0625 8.9199 13.0625H13.0003C17.3976 13.0625 20.9601 16.4914 20.9601 20.7238C20.9601 21.4285 20.3663 22 19.6342 22H2.28598C1.55383 22 0.960083 21.4285 0.960083 20.7238Z" fill="black"/>
</svg>
