<svg width="14" height="14" viewBox="0 0 14 14" fill="none" xmlns="http://www.w3.org/2000/svg">
<path d="M11.5165 6.27681C11.5165 7.44207 11.1383 8.51848 10.501 9.39179L13.715 12.6083C14.0324 12.9256 14.0324 13.441 13.715 13.7583C13.3977 14.0757 12.8823 14.0757 12.565 13.7583L9.35102 10.5418C8.47771 11.1816 7.4013 11.5573 6.23604 11.5573C3.31909 11.5573 0.955566 9.19377 0.955566 6.27681C0.955566 3.35986 3.31909 0.996338 6.23604 0.996338C9.153 0.996338 11.5165 3.35986 11.5165 6.27681ZM6.23604 9.93253C8.2543 9.93253 9.89176 8.29507 9.89176 6.27681C9.89176 4.25856 8.2543 2.6211 6.23604 2.6211C4.21778 2.6211 2.58033 4.25856 2.58033 6.27681C2.58033 8.29507 4.21778 9.93253 6.23604 9.93253Z" fill="#A6A2A2"/>
</svg>
