<svg width="25" height="24" viewBox="0 0 25 24" fill="none" xmlns="http://www.w3.org/2000/svg">
<path d="M1.6103 12.1938C0.567738 12.7889 0.664614 14.3758 1.77638 14.8371L8.24859 17.5358V22.3011C8.24859 23.1361 8.9221 23.8096 9.75708 23.8096C10.2045 23.8096 10.629 23.6112 10.915 23.2653L13.7751 19.8377L19.4908 22.2181C20.3626 22.5825 21.3729 22.0105 21.5159 21.0786L24.4683 1.88805C24.556 1.32986 24.3115 0.767063 23.8456 0.448758C23.3796 0.130452 22.7707 0.102774 22.2771 0.384174L1.6103 12.1938ZM4.01374 13.3701L19.7676 4.36991L9.63714 15.6905L9.69249 15.7366L4.01374 13.3701ZM19.4723 19.8146L11.7868 16.6085L21.6635 5.56932L19.4723 19.8146Z" fill="white"/>
</svg>
