<svg width="17" height="19" viewBox="0 0 17 19" fill="none" xmlns="http://www.w3.org/2000/svg">
<path d="M16.954 6.30903C17.0641 6.6085 16.9712 6.94239 16.7337 7.1558L15.2432 8.51203C15.2811 8.79773 15.3017 9.09031 15.3017 9.38634C15.3017 9.68237 15.2811 9.97496 15.2432 10.2607L16.7337 11.6169C16.9712 11.8303 17.0641 12.1642 16.954 12.4637C16.8025 12.8733 16.6201 13.2657 16.4101 13.6443L16.2483 13.9231C16.0211 14.3018 15.7664 14.6598 15.4876 14.9971C15.2845 15.2449 14.9472 15.3276 14.6443 15.2312L12.727 14.6219C12.2657 14.9765 11.7563 15.2725 11.2124 15.4962L10.7821 17.4617C10.7133 17.775 10.4723 18.0228 10.1556 18.0744C9.68062 18.1536 9.19183 18.1949 8.69271 18.1949C8.19359 18.1949 7.7048 18.1536 7.22978 18.0744C6.9131 18.0228 6.67215 17.775 6.6033 17.4617L6.17303 15.4962C5.62916 15.2725 5.11972 14.9765 4.65847 14.6219L2.74461 15.2346C2.4417 15.331 2.10436 15.2449 1.90127 15.0006C1.62246 14.6632 1.36774 14.3052 1.14055 13.9266L0.978769 13.6478C0.768795 13.2691 0.586359 12.8767 0.434903 12.4671C0.324753 12.1676 0.417692 11.8337 0.655203 11.6203L2.14567 10.2641C2.10781 9.97496 2.08715 9.68237 2.08715 9.38634C2.08715 9.09031 2.10781 8.79773 2.14567 8.51203L0.655203 7.1558C0.417692 6.94239 0.324753 6.6085 0.434903 6.30903C0.586359 5.89941 0.768795 5.507 0.978769 5.12836L1.14055 4.84954C1.36774 4.4709 1.62246 4.11291 1.90127 3.77558C2.10436 3.52774 2.4417 3.44513 2.74461 3.54151L4.66191 4.15077C5.12316 3.79623 5.63261 3.5002 6.17647 3.27646L6.60675 1.31097C6.67559 0.99773 6.91654 0.749892 7.23322 0.69826C7.70825 0.615647 8.19704 0.574341 8.69615 0.574341C9.19527 0.574341 9.68406 0.615647 10.1591 0.694817C10.4758 0.74645 10.7167 0.994288 10.7856 1.30753L11.2158 3.27302C11.7597 3.49676 12.2691 3.79279 12.7304 4.14733L14.6477 3.53806C14.9506 3.44168 15.2879 3.52774 15.491 3.77213C15.7698 4.10947 16.0246 4.46746 16.2518 4.8461L16.4135 5.12491C16.6235 5.50355 16.8059 5.89596 16.9574 6.30558L16.954 6.30903ZM8.69615 12.1401C10.2176 12.1401 11.4499 10.9078 11.4499 9.38634C11.4499 7.86489 10.2176 6.63259 8.69615 6.63259C7.17471 6.63259 5.9424 7.86489 5.9424 9.38634C5.9424 10.9078 7.17471 12.1401 8.69615 12.1401Z" fill="#A6A2A2"/>
</svg>
