<svg width="19" height="16" viewBox="0 0 19 16" fill="none" xmlns="http://www.w3.org/2000/svg">
<path d="M18.391 8.66675C18.824 8.23377 18.824 7.53059 18.391 7.0976L13.9572 2.6638C13.5242 2.23081 12.821 2.23081 12.388 2.6638C11.955 3.09679 11.955 3.79996 12.388 4.23295L14.9305 6.77546H7.63209C7.01898 6.77546 6.52364 7.2708 6.52364 7.88391C6.52364 8.49702 7.01898 8.99236 7.63209 8.99236H14.9305L12.388 11.5349C11.955 11.9679 11.955 12.671 12.388 13.104C12.821 13.537 13.5242 13.537 13.9572 13.104L18.391 8.67022V8.66675ZM6.52364 2.34166C7.13675 2.34166 7.63209 1.84632 7.63209 1.23321C7.63209 0.620095 7.13675 0.124756 6.52364 0.124756H4.30674C2.47087 0.124756 0.981384 1.61424 0.981384 3.45011V12.3177C0.981384 14.1536 2.47087 15.6431 4.30674 15.6431H6.52364C7.13675 15.6431 7.63209 15.1477 7.63209 14.5346C7.63209 13.9215 7.13675 13.4262 6.52364 13.4262H4.30674C3.69362 13.4262 3.19829 12.9308 3.19829 12.3177V3.45011C3.19829 2.837 3.69362 2.34166 4.30674 2.34166H6.52364Z" fill="#A6A2A2"/>
</svg>
