<svg width="13" height="13" viewBox="0 0 13 13" fill="none" xmlns="http://www.w3.org/2000/svg">
<path d="M7.10938 3.04688C7.10938 2.70918 6.8377 2.4375 6.5 2.4375C6.1623 2.4375 5.89062 2.70918 5.89062 3.04688V6.175L3.7248 7.61719C3.44551 7.80508 3.36934 8.1834 3.57754 8.4627C3.74258 8.74199 4.1209 8.81816 4.4002 8.60996L6.8377 6.98496C7.00781 6.89355 7.10938 6.70312 7.10938 6.47715V3.04688ZM6.5 0C2.90977 0 0 2.90977 0 6.5C0 10.0902 2.90977 13 6.5 13C10.0902 13 13 10.0902 13 6.5C13 2.90977 10.0902 0 6.5 0ZM11.7812 6.5C11.7812 9.41738 9.41738 11.7812 6.5 11.7812C3.58262 11.7812 1.21875 9.41738 1.21875 6.5C1.21875 3.58262 3.58262 1.21875 6.5 1.21875C9.41738 1.21875 11.7812 3.58262 11.7812 6.5Z" fill="#A6A2A2"/>
</svg>
