<svg width="31" height="36" viewBox="0 0 31 36" fill="none" xmlns="http://www.w3.org/2000/svg">
<path d="M17.0389 1.48518C16.1877 0.634008 14.8054 0.634008 13.9543 1.48518L5.23824 10.2012C4.38706 11.0524 4.38706 12.4347 5.23824 13.2859C6.08941 14.137 7.47172 14.137 8.32289 13.2859L13.321 8.28777V22.6352C13.321 23.8404 14.2947 24.8142 15.5 24.8142C16.7053 24.8142 17.679 23.8404 17.679 22.6352V8.28777L22.6771 13.2859C23.5283 14.137 24.9106 14.137 25.7618 13.2859C26.6129 12.4347 26.6129 11.0524 25.7618 10.2012L17.0457 1.48518H17.0389ZM4.60496 24.8142C4.60496 23.6089 3.63122 22.6352 2.42596 22.6352C1.22069 22.6352 0.246948 23.6089 0.246948 24.8142V29.1722C0.246948 32.7812 3.17499 35.7092 6.78397 35.7092H24.216C27.825 35.7092 30.753 32.7812 30.753 29.1722V24.8142C30.753 23.6089 29.7793 22.6352 28.574 22.6352C27.3688 22.6352 26.395 23.6089 26.395 24.8142V29.1722C26.395 30.3774 25.4213 31.3512 24.216 31.3512H6.78397C5.57871 31.3512 4.60496 30.3774 4.60496 29.1722V24.8142Z" fill="#A6A2A2"/>
</svg>
